<?xml version="1.0" encoding="UTF-8" standalone="no"?>
<svg width="50px" height="50px" viewBox="0 0 50 50" version="1.1" xmlns="http://www.w3.org/2000/svg" xmlns:xlink="http://www.w3.org/1999/xlink" xmlns:sketch="http://www.bohemiancoding.com/sketch/ns">
    <title>50 - Tabbar about</title>
    <description>Created with Sketch (http://www.bohemiancoding.com/sketch)</description>
    <defs></defs>
    <g id="Page-1" stroke="none" stroke-width="1" fill="none" fill-rule="evenodd" sketch:type="MSPage">
        <g id="50---Tabbar-about" sketch:type="MSArtboardGroup" stroke="#979797" stroke-width="2">
            <path d="M22.9974444,2 C13.6100151,2 6,9.60359862 6,19.0012985 L6,31.9987015 C6,41.3882594 13.6103589,49 22.9974444,49 L26.0025556,49 C35.3899849,49 43,41.3964014 43,31.9987015 L43,19.0012985 C43,9.61174062 35.3896411,2 26.0025556,2 L22.9974444,2 Z M23.0033309,12 C19.6877828,12 17,14.6930342 17,18 C17,21.3137085 19.6780403,24 23.0033309,24 L26.9966691,24 C30.3122172,24 33,21.3069658 33,18 C33,14.6862915 30.3219597,12 26.9966691,12 L23.0033309,12 Z" id="Rectangle-46" sketch:type="MSShapeGroup"></path>
        </g>
    </g>
</svg>
